<svg version="1" xmlns="http://www.w3.org/2000/svg" width="800" height="800" viewBox="0 0 600 600">
  <path d="M287.6 7.1c-16.9 2.3-33.3 7.9-70.7 24-47.8 20.5-56 22.9-79.3 22.9-13.6 0-14.8.1-14.1 1.7 1.1 2.9 13.4 51.7 13.1 52-.2.2-2.2-.3-4.5-1.2-7.3-2.5-28.4-6.7-34.6-6.8-6.7 0-12.2 2.2-16.7 7-9.7 10.2-12.5 43.8-5.6 66.1 2.5 8.4 8 14.4 15 16.8 4.5 1.5 6.1 1.5 13.7.4 13.4-1.9 30.8-6.6 38.9-10.5 4.1-1.9 7.7-3.3 7.9-3.1 1.1 1 9.8 58.4 9.1 59.2-.3.3-3.9-.6-7.9-2-8.9-3-31.1-7.6-36.5-7.6-4.6 0-13 3.7-16.1 7.1-11.4 12.4-12.5 59.4-1.7 75 3.7 5.5 10.8 8.9 18.3 8.9 10.7 0 36.3-6.2 47.3-11.6 2.1-.9 3.9-1.6 4.2-1.3.4.5 2.4 26.8 3.2 45.1l.7 13.7-8.9-2.9c-11.6-3.7-28.1-7-35.2-7-14.9 0-22.3 10-25.2 34.5-1.9 15.5 1.4 38 6.7 46.3 3.3 5 9.3 8.9 15.2 9.8 7 1.1 27.2-3 46.4-9.3 1.6-.5 1.7.8 1.7 18.4v18.9l17 35.2 17 35.2v49.8l7.8.8c10.2 1 158 1 170.5 0l9.7-.8V542l17-35.2 17-35.2v-18.9c0-17.6.1-18.9 1.8-18.4 19.1 6.3 39.3 10.4 46.3 9.3 5.9-.9 11.9-4.8 15.2-9.8 5.3-8.3 8.6-30.8 6.7-46.3-2.9-24.5-10.3-34.5-25.2-34.5-7.1 0-23.6 3.3-35 7l-8.8 2.8v-5.7c0-7.2 3.1-52.5 3.6-53 .2-.3 2.1.4 4.2 1.3 11 5.4 36.6 11.6 47.3 11.6 7.5 0 14.6-3.4 18.3-8.9 8.7-12.7 10.1-50.7 2.5-68.1-1.1-2.5-3-5.6-4.2-6.9-3.1-3.4-11.5-7.1-16.1-7.1-5.4 0-27.6 4.6-36.5 7.6-4 1.4-7.6 2.3-7.9 2-.7-.8 8-58.2 9.1-59.2.2-.2 3.8 1.2 7.9 3.1 8.1 3.9 25.5 8.6 38.9 10.5 11.1 1.6 16.8 0 22.8-6.5 10.7-11.7 13.2-49.5 4.6-70.2-3.6-8.5-11.6-13.7-21-13.6-6.2.1-27.3 4.3-34.6 6.8-2.3.9-4.3 1.4-4.5 1.2-.3-.3 12-49.1 13.1-52 .7-1.6-.5-1.7-14.1-1.7-23.4 0-31.3-2.3-79.5-23.1-29.6-12.7-49.1-19.7-62.3-22.4-10.1-2-24.2-2.6-33-1.4zm-62 122.5c5 4 7.5 9.1 7.9 16.1.2 3.2 13.3 92.1 29 197.5C278.2 448.7 291 535.4 291 536c0 .6 3.6 1 8.9 1h8.9l.6-2.8c.3-1.5 13.1-89.1 28.5-194.7S366.4 145 367 142c1.8-9.8 9.1-16 18.8-16 6.6 0 11.3 2.1 15.1 6.8 6.7 8 5.9 19.6-1.8 26.5-3.6 3.2-9.2 5.7-13.1 5.7-3.6 0-9.3-2.3-12.4-5.1l-3.4-2.9-.6 3.2c-.3 1.8-12.7 86.3-27.6 187.8-14.8 101.5-27.2 185.5-27.5 186.7-.5 2.3-.4 2.3 9 2.3 8.4 0 9.5-.2 9.5-1.8 0-2.2 26.9-264.5 27.6-269.2.7-4.6 7.6-11.4 12.9-12.9 5.1-1.4 7.4-1.4 11.6.1 13 4.5 17.8 20.6 9.2 30.8-6.6 7.9-18.2 9.3-26.8 3.2-3.6-2.5-4.5-2.8-4.5-1.5 0 2.3-24.9 243-25.6 247.5l-.6 3.8H356v-70.3c0-45.9.4-71.5 1.1-74 4.4-16.1 28.5-18.5 35.8-3.5 4 8.4 2.4 17.7-4.2 23.5-7.2 6.3-17 6.8-24.6 1.2L360 411v126h19v18h-19v11.5c0 10.8-.1 11.5-2 11.5s-2-.7-2-11.5V555h-19v11.5c0 10.8-.1 11.5-2 11.5s-2-.7-2-11.5V555h-19v23h-5v-23h-18v23.1l-2.7-.3-2.8-.3-.3-11.3-.3-11.2h-15.8l-.3 11.3-.3 11.2-3.2.3-3.3.3V555h-15.9l-.3 11.2-.3 11.3h-7l-.3-11.3-.3-11.2H221v-18H238.3l-.8-61.3c-.4-33.6-.8-61.3-1-61.5-.2-.2-1.4.3-2.7 1.2-3.5 2.3-10.9 3.1-15.3 1.6-4.7-1.6-10.4-6.6-12.1-10.7-3.5-8.2-.3-19.3 6.7-24 10.8-7.1 26.7-1.6 29.8 10.4.6 2.2 1.2 30 1.6 64.8.3 33.5.8 65.2 1.1 70.3l.6 9.2H262l-.5-3.8c-.3-2-6.2-56.6-13-121.2-6.9-64.6-12.7-119.4-13-121.7l-.6-4.2-4.6 2.5c-17.8 9.4-35.9-9.2-26.1-26.8 3.1-5.5 10.2-9.8 16.2-9.8 7.3 0 16.6 6.2 18.5 12.3.5 1.8 7.4 63.8 15.2 137.9L268.4 537h8.3c6.3 0 8.3-.3 8.3-1.3 0-1.4-52.9-357.8-55.1-371l-1.1-6.7-2.9 2.5c-2.8 2.3-8.6 4.5-11.9 4.5-3.9 0-9.5-2.5-13.1-5.7-7.8-7-8.5-18.9-1.5-26.7 4.8-5.4 8.1-6.7 15.8-6.4 5.7.3 7.2.8 10.4 3.4z"/>
</svg>
