<svg data-name="Layer 1" xmlns="http://www.w3.org/2000/svg" viewBox="0 0 457 497.26">
	<g data-name="v3">
		<g data-name="Seal Outer" fill="#f15a29">
			<path d="M228.5 492.88c-123.78 0-224.13-100.34-224.13-224.13A224.1 224.1 0 0 1 126.5 69.16a47.4 47.4 0 0 1 2-15 14.21 14.21 0 0 1 16-9.88c2.78.46 5.57.94 8.33 1.57-1.75-7-3.64-14-5.49-21 20.6 0 23.6-.65 43.43-9.31 11.52-5 25-11.18 37.78-11.18s26.26 6.16 37.77 11.18c19.82 8.65 22.81 9.3 43.41 9.3-1.84 7-3.74 14-5.49 21 2.75-.63 5.54-1.11 8.33-1.57a14.21 14.21 0 0 1 15.93 9.93 47.45 47.45 0 0 1 2 15 224.09 224.09 0 0 1 122.12 199.56c0 123.78-100.34 224.12-224.12 224.12z" fill-rule="evenodd"/>
			<path d="M228.5 497.26C102.5 497.26 0 394.75 0 268.76A227.69 227.69 0 0 1 122.12 66.5a52.27 52.27 0 0 1 2.23-13.57 18.51 18.51 0 0 1 20.83-13l1.66.28q-1.18-4.52-2.39-9l-2.83-10.72h5.68c20 0 22.34-.5 41.68-8.94l1.46-.64C202.14 5.79 215.44 0 228.51 0s26.37 5.8 38.06 10.91l1.46.64c19.32 8.44 21.66 8.94 41.66 8.94h5.68l-2.87 10.69q-1.2 4.53-2.39 9.07l1.67-.28a18.55 18.55 0 0 1 20.83 13 52.29 52.29 0 0 1 2.23 13.57A227.68 227.68 0 0 1 457 268.76c0 125.99-102.5 228.5-228.5 228.5zM142.13 48.47a9.78 9.78 0 0 0-9.41 7 43.26 43.26 0 0 0-1.86 13.59l.07 2.75-2.43 1.25A219 219 0 0 0 8.75 268.76c0 121.17 98.58 219.75 219.75 219.75s219.75-98.58 219.75-219.75A219 219 0 0 0 328.5 73.06l-2.45-1.26.07-2.75a43.19 43.19 0 0 0-1.86-13.59 9.81 9.81 0 0 0-11-6.86c-2.7.44-5.4.91-8.07 1.52l-6.94 1.58 1.72-6.9c1.3-5.21 2.68-10.4 4.05-15.59-16.29-.2-21.17-1.64-39.48-9.64l-1.47-.64C252.16 14.16 239.8 8.75 228.5 8.75s-23.66 5.41-34.57 10.18l-1.46.64c-18.32 8-23.2 9.44-39.5 9.64 1.38 5.19 2.75 10.38 4.05 15.58l1.72 6.9-6.94-1.58c-2.67-.61-5.37-1.07-8.07-1.52a10 10 0 0 0-1.6-.12z"/>
		</g>
		<path data-name="Lower Boarder" d="M228.5 481.88A212.78 212.78 0 0 1 37.57 363.1l13.42-1.1a200.38 200.38 0 0 0 355.21-.37l13.22 1.5A212.78 212.78 0 0 1 228.5 481.88z" fill-rule="evenodd"/>
		<path d="M154.91 434.63h-.16l-2-5.89h-.15v2.9c-.29.21-.48.34-.66.48s-.27.24-.4.37c-.12-.15-.34-.31-.35-.46v-2.23c0-.17-.17-.34-.26-.51a1.5 1.5 0 0 0-.2.49v4.59c0 .91-.2 1-1.35.72v-8.73h-12.6v6.75c0 .44 0 .84-.72.81 0 1.57-.08 3.1 0 4.63.08 1-.63 1.54-1.47 2.26v-2.24c0-.15 0-.43-.08-.43-.71-.1-.4-.56-.44-.88a6.92 6.92 0 0 1 0-.91l-.78-.11-.09-.73h-3.18l-.06.72c-.62 0-.56.35-.57.72a3.82 3.82 0 0 1-.13 1c-.07.23-.32.43-.34.66-.06.6 0 1.21 0 1.82a1.13 1.13 0 0 1 0 .22l-.63.1v2.19a198 198 0 0 0 28 13.56v-27.07h-1.3zM114.75 432.02a11.25 11.25 0 0 0-3.07.13q2 1.42 4 2.8v-1.43c1-.11 1.08-.23.84-1.2a10.32 10.32 0 0 0-1.77-.3zM122.61 428.17h-1.45c-.12.32-.16.77-.33.81-.51.11-.44.39-.44.67v8.12c-1-.66-1-.75-1.06-2.12 0-.18-.2-.36-.31-.54-.19.15-.49.26-.56.45-.13.35-.25.7-.37 1q3.76 2.52 7.64 4.87v-12.25h-3zM316.8 416.93c0 1.24 0 1.24-1.45 1.32a.81.81 0 0 0-.18.08 5.29 5.29 0 0 1 0 .89c0 .15-.21.27-.33.41a1.81 1.81 0 0 1-.37-.43 1.43 1.43 0 0 1 0-.53v-2.75h-.23v2.27H314v-2.27h-.26v2.27h-.24v-2.3h-.23v2.32h-.24v-2.27h-.26v2.26h-.27v-2.27h-.24v2.28h-.21v-2.26h-.25v2.25h-.3v-2.27h-.25v2.28a12.5 12.5 0 0 1-.56-2.8c-.12-2.85-.17-5.7-.22-8.55v-4.17h-.25v6.82c-.08 2.82-.24 5.64-.38 8.46a.92.92 0 0 1-.09.24h-.18v-2.27h-.26v2.26h-.25v-2.3h-.24v2.31h-.24v-2.24h-.26v2.26h-.27v-2.3h-.24v2.27h-.21v-2.25h-.25v2.25h-.25v-2.27h-.25v2.28h-.24v-2.28h-.25v2.28h-.25v-2.24c-.26.75 0 1.53-.26 2.27h-.24v-2.31h-.2v2.27h-.25v-2.25h-.25v2.28h-.27c-.25-.8 0-1.65-.16-2.42h-1.33v29.56c-2.12-.57-4.19-.29-6.31-.34v2.09l-1 .1v9.91h-1.14v-.72-8.35c0-.27.14-.61-.37-.7-.05 0-.11-.17-.1-.26.08-.42-.22-.66-.57-.87a7.84 7.84 0 0 0-1.42-.81.91.91 0 0 1-.72-1v-25.65-.74l-.17.13a6.7 6.7 0 0 1-1.32-.7c-1.93-1.67-3.91-3.32-5.7-5.1a4.39 4.39 0 0 0-3.88-1.42 29.89 29.89 0 0 1-3.13 0v37.26h-2.64v-2.67c0-.16-.07-.44-.15-.45-.54-.07-.4-.41-.41-.68s0-.82 0-1.24a2.24 2.24 0 0 1-.44-.07.45.45 0 0 1-.25-.21.26.26 0 0 1 .07-.25c.74-.14.33-.59.42-1h-1.22v-.77-14.77a1.75 1.75 0 0 0-.13-.61c-.08-.21-.3-.41-.31-.61v-3.41a1.1 1.1 0 0 0-.07-.44c-.64 0-.35-.5-.51-.78h-5.69l-.66.88a33.19 33.19 0 0 0-.16 3.82c0 .16-.06.45-.13.46-.58.07-.43.44-.43.72v6.41c0 .41-.14.57-.63.53h-1v2.93h-1.25v20.37c0 .86.07 1.72.14 2.57 0 .42-.17.55-.64.53s-1.06 0-1.58 0c-1.29 0-1.12.09-1.12-.93v-20.41l-1.25-.06v-1.6c-.67-.48-2 .49-2-.92h-7.58l-.11.75-1.35.07v1.58l-1.09.08v2.15c0 .4-.13.59-.62.55h-1.09v19h-4.37l.3-10.43h-1.68a2.8 2.8 0 0 1-.12-.49c0-.8 0-1.61-.14-2.4s.36-1.52 0-2.31c-.05-.13.41-.44.67-.63a1.81 1.81 0 0 1 .58-.12c.07-.77.14-1.51.2-2.25a.52.52 0 0 0-.13-.42c-.54-.41-1.15-.75-1.66-1.18s-1.37-.79-1.07-1.64a7.7 7.7 0 0 1 .46-.93c-.29-.38-.75-.71-.75-1a1.75 1.75 0 0 0-.83-1.53 3.35 3.35 0 0 1-1.35-2.43c-.09-.6-.12-1.21-.17-1.82a1.42 1.42 0 0 1 .55-1.44.62.62 0 0 0 .16-.48c0-.51-.11-1-.09-1.52a5.42 5.42 0 0 1 .21-1.57 10.24 10.24 0 0 0 .47-2.54c-.21-1.63-.42-3.27-.58-4.91a.7.7 0 0 1 .38-.56 3.1 3.1 0 0 0 2.08-3 4.59 4.59 0 0 1 .1-.7c0-.1.08-.26.17-.29.88-.3 1.15-1 1.57-1.64.3-.45.49-.89 0-1.25l.69-1.52-2.94-1.51-1.19 1.42a3.1 3.1 0 0 1-1.81-2.25 4.85 4.85 0 0 0-.7-1.33 1.16 1.16 0 0 0-.55-.5 2.23 2.23 0 0 1-1.48-1.66 5.6 5.6 0 0 1 0-1.23c-.06-.68-.18-1.36-.24-2 0-.33.15-.54.6-.56s1.08-.1 1.63-.16v-.17h-1.56a2.32 2.32 0 0 1-.63-.24c.15-.14.26-.34.45-.42.52-.24 1.07-.44 1.63-.67-1-.16-1.93.79-2.94 0l1.33-1.63a12.85 12.85 0 0 0-1.57 1 .89.89 0 0 1-1.46-.37l-.52-1.45h-.18v1.34c0 .21-.1.55-.24.59a1.89 1.89 0 0 1-1.06 0 20.82 20.82 0 0 1-1.89-1l-.23.22 1.94 1.3-.08.21a2.88 2.88 0 0 1-.66.26c-.45.06-.91.05-1.37.09s-.53-.12-.58-.47a9.29 9.29 0 0 0-.5-2.24 8.84 8.84 0 0 1-.62-3.4 3.63 3.63 0 0 0-.49-1.62c-.37-.69-.23-1.19.57-1.46.42-.14.76-.32.46-.78a.34.34 0 0 1-.06-.28c.28-.62-.24-.65-.7-.67s-.62-.15-.35-.58a2.63 2.63 0 0 0 .55-1.64 1.53 1.53 0 0 0-2.06.16c-.7.49-.68 1.11-.11 1.83l-1.48.42c.22.6-.4 1.38.64 1.7v.11c.52.62 0 1.34.27 2a4.38 4.38 0 0 1 .5 2c-.06.41.5.89.43 1.29a7.87 7.87 0 0 0 .66 4.27 1.33 1.33 0 0 1-.16 1.27 8.14 8.14 0 0 0-.91 2.19c-.22.89.24 1.5 1.17 1.88-.25.41-.5.8.3 1 .19.06.23.53.3.82a4.82 4.82 0 0 1 .09.78v.38c-.38.47-.16.81.23 1.19a1.2 1.2 0 0 1 .24 1.79 5 5 0 0 0-1 3c0 1 .06 1.1 1.3 1.39-.18.46-.34.92-.56 1.37a3.62 3.62 0 0 0-.15 2.65 18.65 18.65 0 0 1 .61 2.91 13 13 0 0 1-.18 1.82 21.31 21.31 0 0 1 0 2.37 7.25 7.25 0 0 0 .33 3.6c.05.14.12.35 0 .44-.5.52-.31 1.06-.14 1.62a1.74 1.74 0 0 1-1.23 2.06c-.14 0-.35.11-.39.21-.18.42-.58.44-1 .5l-1 .14c0 .72.24 1.55-.73 1.73a9.68 9.68 0 0 1 .25 2 8.35 8.35 0 0 1-.58 1.8l-2.52-.42a15.2 15.2 0 0 0 0 1.79 2.57 2.57 0 0 0 .42 1.18c.23.32.75.5 1 .82a1.71 1.71 0 0 1 .17.91c0 .16-.09.33-.09.49v2.46h-1.93v13h-1.7v-1.64l-.82-.12v-6l-1-.07v-.43c-.08-9.88.22-19.75-.29-29.63v-1.6l-1-.1v-3.78l-.87-.1-.1-1a1.47 1.47 0 0 1-1.67-1.25 14.85 14.85 0 0 1-.5-3.34c-.1-1.17 0-2.35-.18-3.52a2.45 2.45 0 0 0-.75-1.43.83.83 0 0 1-.37-.65v-4.75a2.76 2.76 0 0 0-.11-.54h-.18a3.42 3.42 0 0 0-.05.43v4.82c0 .18 0 .49-.15.52-1.12.31-1.07 1.22-1.15 1.89-.26 2.17-.34 4.36-.5 6.54a.59.59 0 0 1-.17.34c-.32.32-.65.62-1.07 1l-.51.06-.06 1-.92.06v3.73l-1.07.07c-.26 2.11-.11 4.2-.28 6.29-.31 3.92-.14 7.88-.15 11.82v13.62l-.83.12v5.26c0 .51 0 .9-.88.82v1.65h-2.35c-.57 0-.79-.27-.74-.75a11.62 11.62 0 0 0 0-1.18v-2.46c0-.82 0-1.72.05-2.59s0-1.83 0-2.74a10.41 10.41 0 0 0-.15-1.47 6.73 6.73 0 0 1-.28-1v-11.05l-1.1-.09v-.71-9.88c0-.49-.16-.65-.73-.63h-2.81v-.77c0-1.7 0-3.4-.16-5.1a4 4 0 0 0-.58-1.93 4.79 4.79 0 0 0-4.7-1.71c-2.18.53-3.25 1.41-3.44 3.29s-.16 3.59-.22 5.39v.83h-3.58v11.22l-1 .07a1.57 1.57 0 0 0 0 .21c-.18 4.16.17 8.32-.26 12.49a95.48 95.48 0 0 0-.07 9.64c0 .25 0 .5-.06.76H171c-.41-.63.38-.53.59-.77a2 2 0 0 1-.61-1.68l-.06-.11.21-1.28c-.31-.17-.31-1.08.13-1.4a1.06 1.06 0 0 1 0-1.39 1 1 0 0 1-.06-1.41l-.74-1.37h-9.96a6.38 6.38 0 0 1 1-.3 2.18 2.18 0 0 1 1 0 4.57 4.57 0 0 0 3.16 0 2.37 2.37 0 0 1 1 0c.38 0 .75.21 1.14.23h2.41c.19 0 .37 0 .64-.07-.69-.44-.76-1.16-.29-1.39-.33-.66.41-1 .6-1.47l-.86-.05.34-1.48a1 1 0 0 1-.11-1.56.58.58 0 0 0 .14-.4c-.67-.3-.21-.51.06-.74-.56-.2-.64-.85-.16-1.45-.51-.12-.37-.4-.23-.68v-1a2 2 0 0 1-.08-.52 5 5 0 0 1 .16-.8c-.61.05-.5-.47-.57-.79s.22-.41.34-.63c-.63-.27-.61-1.06.1-1.47-.64-.19-.65-.25-.16-.73l-.34-.31.52-.33v-1l-.72-.07c-.08-.33-.28-.67-.18-.91s.54-.27 1-.48l-.86-.16c.08-.39.32-.78.2-1.07-.32-.78-.33-1.1.29-1.6-1-.29-.27-1-.53-1.44.74-.2.82-.41.57-1.31l-.74-.12.33-3.17.66-.11v-.87c-.72.08-.84-.24-.79-.74a10.87 10.87 0 0 0 0-1.09l-1.05-.09-.11-.77h-8v1.05c.89-.12.5.49.62.69l.62.41-.48.42c-.06.53.09 1.2-.23 1.49-.5.45-.32.86-.36 1.22l.62.46-.58.52.83.21-.25 2.42-1 .05v.88c.75.23.9.76.38 1.25a.44.44 0 0 0-.1.28c.58.25.05.73.34 1l-.6.28.49.32v.94l-.52.11-.09 1.17.53.11-.14 1-.6.17.63.25v1l-.66.25.65.24v1l-.63.19.8.41-.41.24.18 2-.62.18c.79.16.73.7.57 1.08a1.28 1.28 0 0 0 0 1 3.86 3.86 0 0 0 .4.63l-.74.14c.11.29.32.54.25.72-.16.4-.43.75-.21 1.2 0 .08 0 .23-.08.33-.16.25-.34.49-.41.58.33.28.77.57.73.62-.42.62-.09 1.29-.23 1.9-.1.45 0 .66.46.92l-.78.21c-.06.27-.27.72-.15.8.59.38.06.75.06 1.11 0 .13-.12.26-.11.38 0 .82.08 1.63.1 2.45V457.82a199.4 199.4 0 0 0 159-9.23v-32.78h-1.86zM337.93 433.91c-.34-1.11.35-2.38-.6-3.43h-3.64c-1 .85-.65 1.84-.71 2.77v.88a1.12 1.12 0 0 1-.12.38c-.1.22-.31.44-.32.67v4.29c0 .91 0 .91-1.07 1 0 0-.07 0-.2.1v1q3.58-2.16 7.05-4.48a10.45 10.45 0 0 0-.39-3.18zM328.33 429.85c-.58 0-.67-.26-.65-.65s0-1.06 0-1.59c0-.75 0-.75-.91-.75h-1.35v-1.23h-4.16v1.71l-1.68.07v20.62q5-2.56 9.75-5.39h-1z"/>
		<g data-name="Bottom Text">
			<path d="M169.81 363.57l-.54-9.28 2.73-.16c2.41 2.35 3.61 3.53 6 5.9l-.31-6.2 2.61-.13.44 9.28-2.79.14c-2.34-2.31-3.52-3.46-5.89-5.76l.34 6.05zM183.2 362.88l-.42-9.28c4.12-.19 6.19-.27 10.31-.41l.05 1.57c-3 .1-4.5.16-7.49.29l.09 2.06 7-.27.06 1.57-6.95.27.11 2.53c3.08-.13 4.63-.19 7.71-.3l.05 1.56c-4.22.16-6.32.22-10.52.41zM197.5 362.33c-1.43-3.67-2.15-5.51-3.61-9.18l2.88-.09c.92 2.53 1.38 3.79 2.28 6.32.94-2.58 1.41-3.87 2.36-6.45l3.34-.08c1 2.57 1.55 3.86 2.57 6.44.79-2.61 1.19-3.92 2-6.53h2.83c-1.29 3.74-1.93 5.61-3.2 9.35l-3 .06c-1.16-2.75-1.74-4.13-2.92-6.88-1 2.81-1.55 4.21-2.56 7zM221.76 361.88v-3.91c-2-2.14-3.07-3.21-5.13-5.33h3.29l3.29 3.65 3.19-3.69h3.24c-2 2.16-3.07 3.24-5.1 5.4v3.9zM229.94 357.27a4.22 4.22 0 0 1 .64-2.38 4.75 4.75 0 0 1 1.3-1.27 6 6 0 0 1 1.8-.83 11 11 0 0 1 3-.35 8.45 8.45 0 0 1 4.91 1.33 4.32 4.32 0 0 1-.08 7.06 8.39 8.39 0 0 1-4.87 1.22 8.49 8.49 0 0 1-4.89-1.29 4 4 0 0 1-1.81-3.49zm2.88-.06a2.81 2.81 0 0 0 1.07 2.4 5.07 5.07 0 0 0 5.49.05 2.85 2.85 0 0 0 1.1-2.41 2.79 2.79 0 0 0-1-2.4 5.29 5.29 0 0 0-5.57 0 2.8 2.8 0 0 0-1.08 2.36zM245.02 361.99l.15-9.29 5.91.11a14.72 14.72 0 0 1 3.23.33 3.24 3.24 0 0 1 1.59.93 2.08 2.08 0 0 1-.4 3.18 5.52 5.52 0 0 1-2.76.79 6.78 6.78 0 0 1 1.48.82 11.8 11.8 0 0 1 1.55 1.55l1.63 1.86-3.33-.09-2-2.07a14.72 14.72 0 0 0-1.44-1.4 2.38 2.38 0 0 0-.83-.4 6.69 6.69 0 0 0-1.4-.13h-.57l-.07 3.88zm2.89-5.31h2.07a16.12 16.12 0 0 0 2.52-.05 1.6 1.6 0 0 0 .79-.37.94.94 0 0 0 .3-.69.91.91 0 0 0-.35-.77 2.05 2.05 0 0 0-1-.39c-.22 0-.91-.05-2-.08h-2.19zM258.5 362.3l.28-9.29 2.81.09-.13 4.13c2.31-1.58 3.48-2.36 5.81-3.92l3.78.15c-2.16 1.36-3.23 2-5.37 3.41 2.12 2.35 3.17 3.53 5.26 5.88l-3.6-.15c-1.45-1.8-2.18-2.7-3.64-4.5l-2.35 1.53-.09 2.81zM272.17 353.53l2.67.12-.06 1.27a3.05 3.05 0 0 1-.25 1.21 1.91 1.91 0 0 1-.79.77 4.58 4.58 0 0 1-1.43.5l-.49-.76a2.54 2.54 0 0 0 1.17-.44 1.15 1.15 0 0 0 .4-.83l-1.29-.06zM276.17 359.96h2.72a2.11 2.11 0 0 0 .93 1.4 4.07 4.07 0 0 0 2 .54 4.26 4.26 0 0 0 2-.27q.7-.34.73-.86a.7.7 0 0 0-.26-.58 2.64 2.64 0 0 0-1-.46q-.48-.14-2.21-.52a9.83 9.83 0 0 1-3.11-1.08 2.2 2.2 0 0 1-1.19-1.93 1.88 1.88 0 0 1 .67-1.3 3.83 3.83 0 0 1 1.78-.86 10 10 0 0 1 2.75-.18 8 8 0 0 1 3.9 1 2.46 2.46 0 0 1 1.27 2.12l-2.8-.08a1.52 1.52 0 0 0-.71-1.07 3.91 3.91 0 0 0-1.76-.41 4.46 4.46 0 0 0-1.93.24.65.65 0 0 0-.47.55.67.67 0 0 0 .39.58 9.91 9.91 0 0 0 2.54.76 18.19 18.19 0 0 1 3 .83 3.71 3.71 0 0 1 1.48 1 2.1 2.1 0 0 1 .47 1.51 2.15 2.15 0 0 1-.75 1.46 4 4 0 0 1-1.92.93 11.41 11.41 0 0 1-3 .18 8.16 8.16 0 0 1-4-1 3.3 3.3 0 0 1-1.52-2.5zM104.44 386.97l-1.16-9.22 5.78-.71a14.28 14.28 0 0 1 3.2-.13 3.18 3.18 0 0 1 1.69.7 2.1 2.1 0 0 1 .06 3.21 5.38 5.38 0 0 1-2.58 1.17 6.66 6.66 0 0 1 1.56.6 11.74 11.74 0 0 1 1.73 1.32l1.85 1.61-3.26.38-2.21-1.77a14.59 14.59 0 0 0-1.6-1.18 2.32 2.32 0 0 0-.87-.28 6.49 6.49 0 0 0-1.39.06l-.55.07.48 3.85zm2.06-5.66l2-.25a15.63 15.63 0 0 0 2.45-.41 1.56 1.56 0 0 0 .72-.48 1 1 0 0 0 .2-.73.91.91 0 0 0-.45-.71 2 2 0 0 0-1.08-.24c-.22 0-.89.07-2 .21l-2.14.26zM116.5 380.91a4.28 4.28 0 0 1 .35-2.44 4.71 4.71 0 0 1 1.12-1.41 5.87 5.87 0 0 1 1.67-1 10.68 10.68 0 0 1 2.9-.68 8.21 8.21 0 0 1 4.95.76 4.36 4.36 0 0 1 .73 7 8.16 8.16 0 0 1-4.62 1.76 8.26 8.26 0 0 1-4.93-.74 4 4 0 0 1-2.17-3.25zm2.81-.38a2.83 2.83 0 0 0 1.32 2.26 4.93 4.93 0 0 0 5.38-.57 2.87 2.87 0 0 0 .8-2.52 2.81 2.81 0 0 0-1.27-2.27 5.14 5.14 0 0 0-5.46.59 2.82 2.82 0 0 0-.77 2.51zM140.1 379.69l2.7.34a4.26 4.26 0 0 1-1.83 2.43 7.85 7.85 0 0 1-3.52 1.06 7.43 7.43 0 0 1-4.54-.84 4.06 4.06 0 0 1-2.07-3.27 4.19 4.19 0 0 1 1.4-3.76 7.65 7.65 0 0 1 4.5-1.71 7.39 7.39 0 0 1 4.15.64 3.62 3.62 0 0 1 1.54 1.58l-2.68.68a2 2 0 0 0-1.11-1 4.42 4.42 0 0 0-4.29.72 2.87 2.87 0 0 0-.71 2.48 3 3 0 0 0 1.16 2.41 3.73 3.73 0 0 0 2.47.52 3.59 3.59 0 0 0 1.83-.64 2.66 2.66 0 0 0 1-1.64zM144.96 382.7l-.78-9.26 2.76-.23.34 4.11c2.08-1.83 3.13-2.74 5.23-4.55l3.71-.28c-2 1.59-2.92 2.39-4.86 4 2.34 2.09 3.5 3.15 5.81 5.25l-3.53.26-4.06-4.06-2.08 1.69.23 2.8zM174.78 379.49l-1.5 1.46a10.15 10.15 0 0 1-2.28-.94 6.42 6.42 0 0 1-1.7.85 8.89 8.89 0 0 1-2.18.37 6.26 6.26 0 0 1-3.87-.73 2.17 2.17 0 0 1-1.1-1.67 2.13 2.13 0 0 1 .67-1.65 6.55 6.55 0 0 1 2.25-1.39 5.43 5.43 0 0 1-1.12-1 1.72 1.72 0 0 1-.42-.94 1.68 1.68 0 0 1 .9-1.49 5.6 5.6 0 0 1 2.79-.76 5.26 5.26 0 0 1 2.8.45 1.76 1.76 0 0 1 1.08 1.44 1.53 1.53 0 0 1-.43 1.1 6.66 6.66 0 0 1-1.92 1.26l2 1.59a3.65 3.65 0 0 0 .51-1.09l2.38.23a8.17 8.17 0 0 1-.54 1.28 3.36 3.36 0 0 1-.52.69 10.84 10.84 0 0 0 1.16.55 9.73 9.73 0 0 0 1.04.39zm-8.28-2.64a3.57 3.57 0 0 0-1.3.83 1.27 1.27 0 0 0-.39.92 1.09 1.09 0 0 0 .61.9 2.65 2.65 0 0 0 1.5.27 4.19 4.19 0 0 0 1.16-.24 5.85 5.85 0 0 0 1.2-.62zm.9-2l.68-.41q.76-.46.73-.86a.69.69 0 0 0-.41-.56 2.31 2.31 0 0 0-2 .09.59.59 0 0 0-.32.51q0 .33.65.76zM180.85 380.32l-.45-9.28 5.81-.26a14.23 14.23 0 0 1 3.19.12 3.17 3.17 0 0 1 1.62.83 2.1 2.1 0 0 1-.19 3.2 5.37 5.37 0 0 1-2.66 1 6.64 6.64 0 0 1 1.5.72 11.74 11.74 0 0 1 1.62 1.45l1.72 1.75-3.27.12-2.06-1.94a14.66 14.66 0 0 0-1.5-1.3 2.32 2.32 0 0 0-.84-.35 6.47 6.47 0 0 0-1.39 0h-.56l.18 3.88zm2.49-5.49l2-.09a15.58 15.58 0 0 0 2.47-.22 1.56 1.56 0 0 0 .76-.42 1 1 0 0 0 .25-.71.92.92 0 0 0-.4-.74 2 2 0 0 0-1.05-.32c-.22 0-.9 0-2 .05l-2.15.1zM193.31 375.2a4.28 4.28 0 0 1 .54-2.4 4.71 4.71 0 0 1 1.23-1.32 5.86 5.86 0 0 1 1.74-.89 10.65 10.65 0 0 1 2.94-.46 8.2 8.2 0 0 1 4.87 1.15 4.37 4.37 0 0 1 .18 7.06 8.14 8.14 0 0 1-4.74 1.4 8.24 8.24 0 0 1-4.85-1.11 4 4 0 0 1-1.91-3.43zm2.83-.16a2.83 2.83 0 0 0 1.14 2.36 4.91 4.91 0 0 0 5.4-.15 2.87 2.87 0 0 0 1-2.45 2.81 2.81 0 0 0-1.09-2.36 5.12 5.12 0 0 0-5.48.17 2.82 2.82 0 0 0-.97 2.43zM208.35 379.37l-.19-9.22 2.76-.05.13 7.65 6.82-.1v1.57c-3.79.05-5.7.08-9.52.15zM219.45 379.21l-.08-9.22h2.76v7.65h6.82v1.57c-3.78-.04-5.69-.04-9.5 0zM235.25 379.19l.06-9.29h4.43a23.14 23.14 0 0 1 3.28.18 4 4 0 0 1 2 .94 2.3 2.3 0 0 1 .76 1.82 2.27 2.27 0 0 1-.48 1.43 3.17 3.17 0 0 1-1.17.9 5 5 0 0 1-1.43.42 22.6 22.6 0 0 1-2.85.1h-1.79v3.51zm2.81-7.7v2.64h1.51a10.41 10.41 0 0 0 2.18-.12 1.87 1.87 0 0 0 .87-.44 1 1 0 0 0 .32-.72 1 1 0 0 0-.43-.84 2.28 2.28 0 0 0-1.1-.43 19.32 19.32 0 0 0-2-.09zM259.63 379.63l-3-.09-1.13-2.11-5.43-.13-1.16 2.09-2.9-.06c2.18-3.68 3.28-5.52 5.49-9.18l2.92.07c2.08 3.76 3.15 5.65 5.21 9.41zm-4.94-3.82l-1.79-3.5-1.92 3.4zM260.61 379.69l.3-9.29 5.81.21a14.24 14.24 0 0 1 3.17.38 3.17 3.17 0 0 1 1.55 1 2.1 2.1 0 0 1-.44 3.18 5.37 5.37 0 0 1-2.73.75 6.62 6.62 0 0 1 1.44.84 11.68 11.68 0 0 1 1.5 1.57l1.58 1.88-3.27-.14-1.9-2.1a14.57 14.57 0 0 0-1.39-1.42 2.32 2.32 0 0 0-.81-.42 6.46 6.46 0 0 0-1.38-.16h-.56l-.14 3.88zm2.92-5.27l2 .07a15.58 15.58 0 0 0 2.48 0 1.56 1.56 0 0 0 .79-.36.94.94 0 0 0 .31-.69.92.92 0 0 0-.34-.77 2 2 0 0 0-1-.41c-.22 0-.89-.07-2-.11l-2.15-.08zM276.84 380.35l.38-7.71-4-.19.07-1.57c4.35.19 6.52.3 10.86.55l-.09 1.57-4-.22-.4 7.71z"/>
			<path d="M288.43 380.98l.24-3.9c-1.86-2.27-2.8-3.4-4.68-5.66l3.23.19 3 3.86 3.38-3.47 3.18.21c-2.16 2-3.23 3-5.36 5.05l-.25 3.89zM302.5 372.63l5.46.42a22.53 22.53 0 0 1 2.41.29 4.61 4.61 0 0 1 1.39.5 3.07 3.07 0 0 1 1 .86 1.62 1.62 0 0 1 .33 1.12 1.71 1.71 0 0 1-.62 1.15 3.18 3.18 0 0 1-1.46.7 4 4 0 0 1 1.84 1 1.82 1.82 0 0 1 .55 1.45 2.08 2.08 0 0 1-.54 1.19 3 3 0 0 1-1.25.85 5.16 5.16 0 0 1-1.87.29c-.46 0-1.56-.07-3.3-.2l-4.6-.35zm2.64 1.75l-.17 2.14 1.8.14q1.6.13 2 .13a2.29 2.29 0 0 0 1.14-.24.86.86 0 0 0 .17-1.42 1.94 1.94 0 0 0-1-.41c-.27 0-1.05-.12-2.35-.22zm-.28 3.69l-.19 2.48 2.53.2c1 .08 1.61.11 1.88.09a2.07 2.07 0 0 0 1-.29.94.94 0 0 0 .45-.75 1 1 0 0 0-.24-.73 1.79 1.79 0 0 0-.82-.49 13.4 13.4 0 0 0-2.42-.33zM327.15 384.1l-3-.29-1-2.22-5.41-.5-1.31 2-2.89-.25c2.43-3.52 3.65-5.28 6.11-8.79l2.91.27c1.89 3.9 2.79 5.86 4.59 9.78zm-4.65-4.15l-1.55-3.61-2.18 3.29zM328.15 384.2l.94-9.25 2.68.27c2 2.7 3 4.05 4.9 6.76l.68-6.17 2.56.28-1 9.24-2.73-.3c-1.91-2.65-2.88-4-4.82-6.61l-.63 6zM342.31 376.38l5 .59a14.14 14.14 0 0 1 2.57.49 5.24 5.24 0 0 1 1.94 1.1 4.09 4.09 0 0 1 1.11 1.66 4.86 4.86 0 0 1 .17 2.24 4.36 4.36 0 0 1-.66 1.91 4.22 4.22 0 0 1-1.65 1.45 5.72 5.72 0 0 1-2 .5 12 12 0 0 1-2.43-.1l-5.12-.6zm2.56 1.88l-.72 6.11 2 .24a11 11 0 0 0 1.66.11 3.12 3.12 0 0 0 1.15-.25 2 2 0 0 0 .82-.8 4.26 4.26 0 0 0 .49-1.66 3.89 3.89 0 0 0-.07-1.68 2.16 2.16 0 0 0-.67-1 3.24 3.24 0 0 0-1.22-.59 18.26 18.26 0 0 0-2.24-.36z"/>
			<g data-name="Stars" fill="#fff" fill-rule="evenodd">
				<path d="M301.84 354.8l.71 4.09 4.12.57-3.68 1.95.73 4.09-2.98-2.89-3.67 1.96 1.83-3.74-3-2.88 4.12.59 1.82-3.74zM155.16 354.82l-.71 4.1-4.12.57 3.68 1.94-.73 4.1 2.98-2.9 3.67 1.96-1.83-3.73 3-2.89-4.12.59-1.82-3.74z"/>
			</g>
		</g>
		<path data-name="Middle Background" d="M427.17 345.12c.39-1 .75-2.06 1.13-3.09q2.1-5.72 3.86-11.53c.32-1.05.66-2.1 1-3.16.58-2 1.11-4.08 1.63-6.12.17-.67.37-1.33.53-2a212.91 212.91 0 0 0 4.36-77.88c-137.93 25-284.25 25.09-422.18 0a214.76 214.76 0 0 0-1.75 27.4 217 217 0 0 0 6.1 50.46c.11.46.25.91.36 1.37a202.45 202.45 0 0 0 10.7 31.81l.51 1.17c.58 1.3 1.1 2.64 1.7 3.93h.08s111.3-14.72 197.21-14.72 189.5 14.75 189.5 14.75h.08c.46-1 .84-2 1.28-3 .56-1.26 1.09-2.54 1.63-3.81.78-1.85 1.6-3.7 2.27-5.58z" fill-rule="evenodd"/>
		<path data-name="Upper boarder" d="M228.5 55.91c-105.62 0-193.22 76.94-209.93 177.83l3 .56c3.08.56 6.16 1 9.23 1.58 15.69-95 98.19-167.5 197.65-167.5s181.94 72.47 197.64 167.48c3.08-.54 6.16-1 9.23-1.58l3-.55C421.71 132.85 334.11 55.91 228.5 55.91z" fill-rule="evenodd"/>
		<path data-name="Headstock Background" d="M268.89 236.81v21.95l-6.75.18c-2.69.07-5.37.15-8.06.19h-1.44c-2.78.05-5.57.11-8.35.14h-1.74c-2.69 0-5.38.06-8.06.07H222.4c-2.49 0-5 0-7.49-.05h-2.62c-2.39 0-4.79-.06-7.18-.11l-2.9-.06-7.3-.17-6.75-.18v-22l-13.76-28.54-.74-1.55.06-1.71q.25-7 .32-14c-5.51 2.5-12.07 3.59-17.37 4.47a9.83 9.83 0 0 1-11.05-6.9 43 43 0 0 1 0-25.16 9.83 9.83 0 0 1 11-6.86c5.19.86 11.53 1.95 16.94 4.32q-.52-12.7-1.59-25.37c-6 3.61-14 5-20.29 6a9.84 9.84 0 0 1-11.05-6.9 43.07 43.07 0 0 1 0-25.15 9.83 9.83 0 0 1 11-6.86c5.28.87 11.75 2 17.22 4.44q-1.74-13-4.06-26c-6 4-14.49 5.38-21 6.47a9.83 9.83 0 0 1-11-6.9 43.06 43.06 0 0 1 0-25.15 9.83 9.83 0 0 1 11-6.86 81.42 81.42 0 0 1 15.07 3.56q-1.67-7.13-3.54-14.21l-2.3-8.71h9c9.2 0 22.09-6 30.49-9.67 10.75-4.69 24.18-10.82 36-10.82s25.27 6.13 36 10.82c8.4 3.67 21.28 9.67 30.48 9.67h9l-2.3 8.71q-1.87 7.08-3.54 14.21a81.32 81.32 0 0 1 15.1-3.49 9.83 9.83 0 0 1 11 6.87 43.06 43.06 0 0 1 0 25.15 9.83 9.83 0 0 1-11.05 6.9c-6.54-1.09-15-2.5-21-6.47q-2.32 12.93-4.06 26c5.47-2.46 11.95-3.57 17.22-4.44a9.83 9.83 0 0 1 11 6.86 43.06 43.06 0 0 1 0 25.15 9.84 9.84 0 0 1-11.05 6.9c-6.28-1-14.32-2.39-20.29-6q-1.06 12.66-1.59 25.37c5.4-2.37 11.75-3.46 16.94-4.32a9.83 9.83 0 0 1 11 6.86 43 43 0 0 1 0 25.16 9.83 9.83 0 0 1-11.05 6.9c-5.3-.88-11.86-2-17.37-4.47q.08 7 .32 14l.06 1.71-.74 1.55z" fill="#f15a29" fill-rule="evenodd"/>
		<g data-name="Headstock">
			<path d="M276.39 205.26a589.42 589.42 0 0 1 18.62-169.08c-19.56 0-46.93-20.49-66.49-20.49s-47 20.49-66.52 20.49a589.42 589.42 0 0 1 18.61 169.08l14.45 30h66.9z" fill-rule="evenodd"/>
			<path d="M195.05 199.91h66.89v52.1q-33.45.9-66.89 0z" fill-rule="evenodd"/>
			<path d="M174.67 171.62h13.94v8.75h-13.94z"/>
			<path d="M155.5 163.38c9.3 1.54 22.75 4 22.75 12.62s-13.15 11.01-22.75 12.63a2.89 2.89 0 0 1-3.26-2 36.09 36.09 0 0 1 0-21.17 2.89 2.89 0 0 1 3.26-2.08z" fill-rule="evenodd"/>
			<path d="M268.4 171.62h13.94v8.75H268.4z"/>
			<path d="M301.5 163.38c-9.3 1.54-22.75 4-22.75 12.62s13.15 11.01 22.75 12.63a2.89 2.89 0 0 0 3.26-2 36.1 36.1 0 0 0 0-21.17 2.89 2.89 0 0 0-3.26-2.08z" fill-rule="evenodd"/>
			<g>
				<path d="M169.7 117.66h13.94v8.75H169.7z"/>
				<path d="M150.5 109.41c9.3 1.54 22.75 4 22.75 12.62s-13.11 11.01-22.75 12.6a2.9 2.9 0 0 1-3.26-2 36.1 36.1 0 0 1 0-21.17 2.89 2.89 0 0 1 3.26-2.05z" fill-rule="evenodd"/>
				<g>
					<path d="M273.36 117.66h13.94v8.75h-13.94z"/>
					<path d="M306.5 109.41c-9.3 1.54-22.75 4-22.75 12.62s13.12 11 22.73 12.61a2.9 2.9 0 0 0 3.26-2 36.1 36.1 0 0 0 0-21.17 2.89 2.89 0 0 0-3.24-2.06z" fill-rule="evenodd"/>
				</g>
			</g>
			<g>
				<path d="M161.82 63.69h13.94v8.75h-13.94z"/>
				<path d="M142.62 55.44c9.3 1.54 22.75 4 22.75 12.62s-13.12 11-22.73 12.61a2.89 2.89 0 0 1-3.26-2 36.08 36.08 0 0 1 0-21.17 2.89 2.89 0 0 1 3.24-2.06z" fill-rule="evenodd"/>
				<g>
					<path d="M281.25 63.69h13.94v8.75h-13.94z"/>
					<path d="M314.38 55.45c-9.3 1.54-22.75 4-22.75 12.62s13.12 11 22.73 12.61a2.89 2.89 0 0 0 3.26-2 36.08 36.08 0 0 0 0-21.17 2.89 2.89 0 0 0-3.24-2.06z" fill-rule="evenodd"/>
				</g>
			</g>
			<g fill="#fff">
				<path d="M202.31 252.19v-17.08l-.75-59.1a1.45 1.45 0 0 1 2.89 0l.75 59.1v17.17zM212.35 252.36v-17.1l-12.08-113.09a1.303 1.303 0 1 1 2.59-.28l12.08 113.08a1.37 1.37 0 0 1 0 .25v17.17zM222.39 252.45v-17.16L197.5 68.23a1.162 1.162 0 0 1 2.3-.33l24.88 167.07a1.23 1.23 0 0 1 0 .25v17.23zM232.43 252.45v-17.22a1.13 1.13 0 0 1 0-.18l24.53-167.13a1.01 1.01 0 0 1 2 .29L234.5 235.29v17.15zM242.5 252.38v-17.15a.77.77 0 0 1 0-.16l11.73-113.13a.87.87 0 0 1 1.73.18l-11.74 113.13v17.11zM252.5 252.22V175.99a.725.725 0 1 1 1.45 0V252.22z" fill-rule="evenodd"/>
				<circle cx="196.21" cy="176" r="8.26"/>
				<circle cx="260.8" cy="176" r="8.26"/>
				<circle cx="194.75" cy="122.03" r="8.26"/>
				<circle cx="262.25" cy="122.03" r="8.26"/>
				<g>
					<circle cx="191.85" cy="68.06" r="8.27"/>
					<circle cx="265.16" cy="68.06" r="8.27"/>
				</g>
				<path d="M195.05 235.22h66.89v7.63h-66.89z"/>
			</g>
		</g>
		<g data-name="Lightning Bolts" fill-rule="evenodd">
			<path d="M385.05 178.4l-27.93-10.78-36.2 35.74 19.22 7.42-39.22 33.64 76.17-38.28-20.78-8.02 28.74-19.72zM344.13 128.9l-15.92 1.29-9.11 25.57 10.95-.89L319 180.13l27.74-36.05-11.85.96 9.24-16.14zM405.02 222.31l-7.87-7.46-17.05 6.97 5.42 5.14-17.78 5.85 30.79-2.31-5.85-5.55 12.34-2.64z"/>
			<g>
				<path d="M71.95 178.4l27.93-10.78 36.2 35.74-19.22 7.42 39.22 33.64-76.17-38.28 20.78-8.02-28.74-19.72zM112.86 128.9l15.93 1.29 9.12 25.57-10.96-.89L138 180.13l-27.74-36.05 11.85.96-9.25-16.14zM51.98 222.31l7.87-7.46 17.05 6.97-5.42 5.14 17.78 5.85-30.79-2.31 5.85-5.55-12.34-2.64z"/>
			</g>
		</g>
		<g fill="#f15a29">
			<path d="M55.89 331.4a19.3 19.3 0 0 0 2.63-.16c2.43-.26 4.37-2 4.37-8.39v-63.22c3 .44 4.57.66 7.63 1.08v60.66c0 16.15-5.2 21-11 21.86a18.27 18.27 0 0 1-3.67.31zM80.57 262.05v60.21c0 5.58 1.53 7.44 4 7.21s4-2.32 4-7.75v-58.68l7.22.86v56.61c0 11.9-3.89 19.14-11.38 20.1s-11.37-5.8-11.37-18.61v-61c2.95.46 4.46.63 7.53 1.05zM108.74 264.52c7.43.79 11.25 7.47 11.25 18.56v2.18l-7.22-.32v-2.93c0-5-1.39-7.07-3.82-7.25s-3.82 1.66-3.82 6.82 1.54 9.33 6.52 15.76c6.39 8.25 8.4 13.84 8.4 21.75 0 11.08-3.89 17.77-11.39 18.56s-11.38-5.49-11.38-17.33v-4.54l7.22-.32v5.17c0 5.17 1.53 6.91 4 6.72s4-2.12 4-7.17-1.54-8.86-6.52-15.29c-6.39-8.25-8.4-14.59-8.4-23-.08-11.87 3.73-18.16 11.16-17.37z"/>
			<path d="M119.78 266.44c9.44.89 14.17 1.29 23.61 2v9.33l-8-.44v57c-3.06.25-4.58.38-7.64.64v-58.15l-8-.52c.03-3.93.03-5.91.03-9.86zM150.41 268.92c9.45.64 14.17.91 23.63 1.36v8.8l-8-.29v53.5c-3.06.17-4.59.25-7.64.44v-54.25l-8-.37c.01-3.67.01-5.48.01-9.19zM182.58 331.51c-3.06.12-4.59.19-7.65.33v-61.52c3.06.14 4.59.21 7.65.33v26.08h8.69v-25.81c3.11.1 4.67.15 7.79.23v59.78c-3.11.08-4.67.12-7.79.22v-25.81h-8.69v26.17zM209.83 296.43h10.5v8.44h-10.5v17.38c5.28-.06 7.93-.08 13.21-.1v8.44c-8.34 0-12.51.1-20.86.29v-59.63c8.34.19 12.51.25 20.86.29v8.44c-5.28 0-7.93 0-13.21-.1v16.55zM231.5 271.57c9.46 0 14.18-.08 23.64-.3v8.52l-8 .11v50.85c-3.06 0-4.59-.07-7.65-.1v-50.68h-8c.01-3.34.01-5.02.01-8.4zM256 271.25c3.06-.07 4.59-.11 7.65-.21v60.1c-3.06-.09-4.59-.13-7.65-.21v-59.68zM289.43 285.35v8.09c0 10-3.75 15.33-11.4 15.25h-3.61v22.86c-3.06-.12-4.59-.18-7.65-.28v-60.3c4.5-.15 6.76-.24 11.26-.43 7.65-.36 11.4 4.85 11.4 14.81zm-15-6v20.6h3.61c2.43 0 3.75-1.41 3.75-5.8v-9.22c0-4.39-1.32-5.75-3.75-5.68zM321.74 283.11v2.38c0 6.85-1.53 11.16-4.93 13.34v.19c4.1 2.14 5.7 7.12 5.7 14.17v5.44c0 10.29-4 15.48-11.6 14.93-4.81-.34-7.21-.5-12-.8v-63.33c4.61-.28 6.92-.44 11.53-.76 7.89-.58 11.29 4.17 11.3 14.44zm-15.21-5v17h3c2.85 0 4.58-1.74 4.58-7v-3.64c0-4.67-1.18-6.66-3.89-6.52zm0 26.18v19.75l4.38.22c2.57.13 4-1.38 4-6.25v-5.71c0-6.08-1.46-8-4.93-8zM349.37 336.94c-3.08-.32-4.62-.48-7.71-.78-.53-5.14-.79-7.7-1.32-12.81l-9.37-.55c-.53 4.92-.79 7.36-1.32 12.25l-7-.59q4-33.69 7.78-67.38c4.47-.4 6.71-.61 11.18-1q3.94 35.39 7.76 70.86zm-17.43-23.36l7.36.25q-1.79-17.51-3.61-35h-.14q-1.79 17.36-3.61 34.74zM357.42 284.63h-.14v53.19l-6.87-.75v-71.94c3.83-.41 5.75-.62 9.58-1.06q3.92 22.24 7.7 44.5h.14v-45.43l6.8-.85v77.58c-3.13-.4-4.7-.59-7.84-1q-4.58-27.14-9.37-54.24zM377.68 261.89c4.83-.63 7.24-1 12.06-1.63 7.62-1.07 11.37 5.75 11.37 19.34v43c0 13.59-3.74 20.41-11.37 19.34-4.82-.68-7.24-1-12.06-1.63zm7.63 10.47v57.43l4.3.42c2.43.24 3.88-1.73 3.88-7.64v-43c0-5.91-1.46-7.88-3.88-7.64z"/>
		</g>
	</g>
</svg>
